<svg width="112" height="101" viewBox="0 0 112 101" fill="none" xmlns="http://www.w3.org/2000/svg">
<path fill-rule="evenodd" clip-rule="evenodd" d="M72.5552 0.0755235C72.5098 0.148063 71.7754 0.214032 70.9233 0.221654C66.3173 0.263969 57.8219 1.65668 51.6785 3.37661C43.8056 5.58066 35.5402 9.36588 28.9625 13.7792C25.0551 16.4009 19.4477 21.1828 16.2053 24.6581C8.23686 33.1989 2.40443 44.2189 0.561142 54.2157C0.0212241 57.1441 -0.158199 61.6158 0.151266 64.4246C2.31703 84.0732 16.0629 97.0358 38.4275 100.52C42.556 101.163 52.7603 101.159 57.1929 100.514C66.8739 99.1037 75.7598 96.2008 83.2011 92.0171C98.0331 83.6784 107.627 71.3693 110.821 56.5812C111.691 52.5562 112.009 49.3605 112 44.754C111.991 40.4021 111.735 38.1418 110.922 35.2397C107.489 22.9879 95.1805 12.1316 81.1435 8.97453C78.2601 8.32614 72.3692 8.31378 69.8441 8.95114C65.8434 9.96065 62.4388 12.0543 59.8614 15.09C59.1633 15.9121 58.5921 16.6877 58.5921 16.8136C58.5921 16.9395 58.7218 17.115 58.8801 17.2036C59.0385 17.2922 59.3913 17.6985 59.664 18.1061L60.1596 18.8473L61.2278 17.6417C63.4377 15.147 66.261 13.4008 69.7032 12.3997C71.7514 11.8041 78.0635 11.715 80.4851 12.2475C93.761 15.1664 105.489 25.2345 108.809 36.5617C110.217 41.3654 110.068 49.959 108.463 56.5812C106.469 64.8078 102.065 72.5993 95.9583 78.7037C87.0859 87.5727 75.1224 93.7365 61.6373 96.3868C52.1875 98.244 40.8355 98.0857 32.7485 95.9845C30.8082 95.4804 26.6907 94.1436 25.588 93.6598C19.1967 90.8557 15.0528 87.9943 10.9378 83.5434C6.01645 78.2204 2.71308 70.0599 2.20427 61.9691C1.94682 57.8756 3.19604 51.4813 5.22814 46.4908C7.20147 41.6448 10.7557 35.5464 13.9694 31.4931C18.081 26.3071 24.1817 20.6151 29.0825 17.3928C29.8765 16.8706 30.8225 16.2311 31.1847 15.972C32.2425 15.2145 37.2676 12.4338 39.4151 11.4178C47.6663 7.51348 56.6553 5.02584 66.1641 4.01554C69.7927 3.62997 72.5019 3.29724 75.7937 2.83309C76.6991 2.70562 78.8842 2.53347 80.6497 2.45094C82.4151 2.36815 84.6744 2.1705 85.6703 2.01149C86.6661 1.85249 88.1662 1.79729 89.0036 1.88902C89.8918 1.986 90.5262 1.95525 90.5262 1.81464C90.5262 1.53841 89.5972 1.40752 83.7773 0.862684C75.0186 0.0424062 72.6786 -0.121596 72.5552 0.0755235Z" fill="#F0ADCA"/>
</svg>
