<svg width="24" height="24" viewBox="0 0 24 24" fill="none" xmlns="http://www.w3.org/2000/svg">
<path fill-rule="evenodd" clip-rule="evenodd" d="M17.2008 0C21.2676 0 24 2.8536 24 7.0992V16.9008C24 21.1464 21.2676 24 17.1984 24H6.7968C2.7312 24 0 21.1464 0 16.9008V7.0992C0 2.8536 2.7312 0 6.7968 0H17.2008ZM17.2008 1.8H6.7968C3.762 1.8 1.8 3.8796 1.8 7.0992V16.9008C1.8 20.1204 3.762 22.2 6.7968 22.2H17.1984C20.2368 22.2 22.2 20.1204 22.2 16.9008V7.0992C22.2 3.8796 20.2368 1.8 17.2008 1.8ZM11.9928 11.1C12.4896 11.1 12.8928 11.5032 12.8928 12V16.8C12.8928 17.2968 12.4896 17.7 11.9928 17.7C11.496 17.7 11.0928 17.2968 11.0928 16.8V12C11.0928 11.5032 11.496 11.1 11.9928 11.1ZM11.9987 6.24492C12.6623 6.24492 13.1987 6.78132 13.1987 7.44492C13.1987 8.10852 12.6623 8.64492 11.9987 8.64492C11.3351 8.64492 10.7927 8.10852 10.7927 7.44492C10.7927 6.78132 11.3243 6.24492 11.9867 6.24492H11.9987Z" fill="black"/>
</svg>
