<svg width="28" height="28" viewBox="0 0 28 28" fill="none" xmlns="http://www.w3.org/2000/svg">
<path d="M23.522 23.3881H19.5709V17.2003C19.5709 15.7248 19.5445 13.8253 17.5159 13.8253C15.458 13.8253 15.1431 15.433 15.1431 17.0929V23.3877H11.192V10.6631H14.9851V12.4021H15.0382C15.4178 11.753 15.9663 11.2191 16.6253 10.8571C17.2844 10.4951 18.0293 10.3187 18.7807 10.3466C22.7854 10.3466 23.5237 12.9807 23.5237 16.4076L23.522 23.3881ZM6.7337 8.92386C5.46734 8.92407 4.44057 7.89761 4.44036 6.63126C4.44016 5.3649 5.46651 4.33813 6.73286 4.33792C7.99922 4.33761 9.02599 5.36407 9.0262 6.63042C9.02631 7.23855 8.78484 7.82182 8.35492 8.25192C7.92499 8.68202 7.34183 8.92372 6.7337 8.92386ZM8.70932 23.3882H4.75401V10.6631H8.70922V23.3881L8.70932 23.3882ZM25.4918 0.668445H2.76859C1.69464 0.656361 0.813906 1.51667 0.800781 2.59063V25.4086C0.81349 26.4831 1.69411 27.3443 2.76849 27.333H25.4918C26.5685 27.3464 27.4526 26.4852 27.4674 25.4086V2.58886C27.4521 1.51282 26.568 0.652611 25.4918 0.666674" fill="white"/>
</svg>
