<svg width="30" height="25" viewBox="0 0 30 25" fill="none" xmlns="http://www.w3.org/2000/svg">
<path d="M29.9997 3.50757C28.913 3.98942 27.7454 4.31508 26.5198 4.46159C27.7709 3.71175 28.7314 2.52436 29.1838 1.1096C27.9945 1.81535 26.6933 2.31259 25.3364 2.57985C24.2312 1.40238 22.6566 0.666504 20.9139 0.666504C17.5678 0.666504 14.8549 3.37929 14.8549 6.72516C14.8549 7.2001 14.9085 7.66246 15.0118 8.10601C9.97636 7.85326 5.51197 5.44122 2.52359 1.77557C2.00216 2.67041 1.70338 3.71129 1.70338 4.82151C1.70338 6.92358 2.77311 8.77798 4.39875 9.86455C3.4366 9.83441 2.49561 9.57454 1.65436 9.10664C1.65401 9.13202 1.65401 9.1574 1.65401 9.18289C1.65401 12.1184 3.74247 14.5673 6.51409 15.1239C5.62189 15.3665 4.68603 15.402 3.778 15.2277C4.54895 17.6348 6.78657 19.3864 9.43775 19.4354C7.36417 21.0604 4.75163 22.029 1.91311 22.029C1.42399 22.029 0.941784 22.0003 0.467773 21.9444C3.14907 23.6635 6.33378 24.6665 9.75533 24.6665C20.8998 24.6665 26.9939 15.4342 26.9939 7.42782C26.9939 7.16503 26.9881 6.90374 26.9764 6.64395C28.1625 5.78647 29.1863 4.72439 29.9997 3.50757Z" fill="white"/>
</svg>
