<svg width="48" height="48" viewBox="0 0 48 48" fill="none" xmlns="http://www.w3.org/2000/svg">
<circle cx="23.8928" cy="23.8928" r="23.8928" fill="black"/>
<g clip-path="url(#clip0_271_456)">
<path d="M33.3939 11.7672C32.6131 11.1764 31.648 11.0287 30.5306 11.3281C28.6377 11.8353 26.5378 13.772 24.9121 16.5097C24.3096 17.5088 23.8194 18.5714 23.4503 19.6781L22.2719 15.2803C22.2225 15.0959 22.1018 14.9386 21.9364 14.8431C21.771 14.7477 21.5745 14.7218 21.3901 14.7712C21.2056 14.8206 21.0483 14.9413 20.9529 15.1067C20.8574 15.2721 20.8315 15.4686 20.8809 15.6531L22.0593 20.0508C21.1886 19.2767 20.235 18.601 19.2161 18.036C16.4417 16.4773 13.6536 15.8503 11.7607 16.3575C10.6375 16.6585 9.87549 17.2689 9.49478 18.171C9.07461 19.1669 9.15052 20.461 9.72725 22.1265C10.2281 23.5738 11.0288 25.0737 11.6698 26.2189C13.1662 28.8915 15.1023 29.3989 16.4618 29.3676C16.2662 30.0004 16.1972 30.6655 16.2587 31.325C16.3201 31.9845 16.5109 32.6254 16.8201 33.2111C17.1293 33.7969 17.5508 34.316 18.0606 34.7388C18.5704 35.1617 19.1585 35.48 19.7913 35.6756C20.4241 35.8711 21.0892 35.9401 21.7487 35.8786C22.4081 35.8172 23.0491 35.6264 23.6348 35.3172C24.2206 35.008 24.7397 34.5865 25.1625 34.0767C25.5854 33.5669 25.9037 32.9789 26.0992 32.346C27.0803 33.2555 28.3825 33.738 29.7193 33.6873C31.0562 33.6367 32.3181 33.057 33.2276 32.0759C34.137 31.0948 34.6195 29.7926 34.5688 28.4558C34.5182 27.119 33.9385 25.8571 32.9574 24.9476C34.1508 24.3011 35.5735 22.8875 35.533 19.8247C35.4926 16.6092 35.2048 13.1381 33.3939 11.7672ZM22.1866 34.4355C21.2996 34.6597 20.3605 34.5391 19.5589 34.0981C18.7573 33.6571 18.1527 32.9285 17.8672 32.0593C17.5816 31.1901 17.6363 30.2449 18.0202 29.4144C18.4042 28.584 19.0888 27.93 19.9359 27.5844C20.0246 27.55 20.1056 27.4984 20.1743 27.4327C20.243 27.3669 20.2981 27.2883 20.3365 27.2012C20.3748 27.1142 20.3956 27.0205 20.3977 26.9254C20.3999 26.8303 20.3832 26.7357 20.3488 26.647C20.3143 26.5584 20.2628 26.4774 20.197 26.4086C20.1313 26.3399 20.0526 26.2848 19.9656 26.2465C19.8785 26.2081 19.7848 26.1873 19.6897 26.1852C19.5946 26.1831 19.5 26.1997 19.4114 26.2342C18.5849 26.5577 17.8594 27.0951 17.3091 27.7914C16.2755 28.1068 14.4151 28.1742 12.9266 25.5169C12.152 24.1329 10.0939 20.4579 10.8217 18.7323C11.0235 18.2521 11.453 17.9308 12.1334 17.7485C13.6264 17.3484 16.1295 17.9549 18.5104 19.2923C20.9403 20.655 22.7007 22.4444 23.1069 23.9606L24.7322 30.0263C24.9794 30.9486 24.85 31.9313 24.3726 32.7582C23.8952 33.585 23.1089 34.1884 22.1866 34.4355ZM34.0933 19.844C34.134 22.8893 32.4947 23.7584 31.4425 24.0043C30.6179 23.676 29.7207 23.5733 28.8433 23.7069C28.7491 23.721 28.6587 23.7535 28.5772 23.8026C28.4957 23.8517 28.4246 23.9163 28.368 23.9928C28.3115 24.0694 28.2705 24.1563 28.2476 24.2486C28.2246 24.341 28.2201 24.4369 28.2342 24.531C28.2483 24.6251 28.2808 24.7155 28.3299 24.7971C28.3789 24.8786 28.4436 24.9497 28.5201 25.0063C28.5966 25.0628 28.6836 25.1037 28.7759 25.1267C28.8682 25.1497 28.9642 25.1542 29.0583 25.1401C29.7478 25.0333 30.4534 25.1284 31.09 25.4139C31.7265 25.6994 32.2669 26.1631 32.6456 26.749C33.0244 27.3349 33.2255 28.0179 33.2246 28.7156C33.2237 29.4133 33.0208 30.0958 32.6404 30.6806C32.2601 31.2655 31.7186 31.7278 31.0812 32.0116C30.4439 32.2954 29.738 32.3887 29.0489 32.2801C28.3597 32.1715 27.7167 31.8657 27.1976 31.3996C26.6784 30.9335 26.3053 30.3271 26.1232 29.6536L24.4979 23.5879C24.0916 22.0717 24.7226 19.6416 26.1445 17.2467C27.54 14.8974 29.4045 13.1207 30.9033 12.7191C31.5837 12.5368 32.114 12.6009 32.5309 12.9141C34.0182 14.0462 34.0733 18.2579 34.0945 19.8437L34.0933 19.844Z" fill="white"/>
</g>
<defs>
<clipPath id="clip0_271_456">
<rect width="30.7207" height="30.7207" fill="white" transform="translate(5 12.9512) rotate(-15)"/>
</clipPath>
</defs>
</svg>
