<svg width="48" height="48" viewBox="0 0 48 48" fill="none" xmlns="http://www.w3.org/2000/svg">
<circle cx="23.8928" cy="23.8928" r="23.8928" fill="#E34F8F"/>
<g clip-path="url(#clip0_271_448)">
<path d="M31.9597 12.9487C31.2734 12.4293 30.425 12.2995 29.4428 12.5627C27.7788 13.0085 25.9329 14.711 24.5038 17.1176C23.9742 17.9958 23.5433 18.9299 23.2188 19.9028L22.1829 16.0369C22.1395 15.8748 22.0334 15.7365 21.888 15.6526C21.7427 15.5686 21.5699 15.5459 21.4078 15.5893C21.2456 15.6328 21.1074 15.7389 21.0234 15.8842C20.9395 16.0296 20.9168 16.2024 20.9602 16.3645L21.9961 20.2304C21.2306 19.5499 20.3925 18.9559 19.4967 18.4592C17.0579 17.0891 14.607 16.5379 12.9431 16.9838C11.9557 17.2483 11.2859 17.7849 10.9512 18.5779C10.5818 19.4534 10.6486 20.5909 11.1555 22.055C11.5958 23.3273 12.2997 24.6458 12.8632 25.6524C14.1785 28.0018 15.8805 28.4479 17.0755 28.4203C16.9036 28.9766 16.843 29.5613 16.897 30.141C16.951 30.7207 17.1187 31.2841 17.3905 31.799C17.6623 32.3139 18.0328 32.7702 18.481 33.1419C18.9291 33.5136 19.4461 33.7934 20.0023 33.9654C20.5586 34.1373 21.1433 34.1979 21.723 34.1439C22.3027 34.0898 22.8661 33.9221 23.381 33.6504C23.8959 33.3786 24.3523 33.008 24.724 32.5599C25.0957 32.1118 25.3755 31.5948 25.5474 31.0385C26.4098 31.838 27.5545 32.2621 28.7296 32.2176C29.9048 32.1731 31.0141 31.6635 31.8136 30.8011C32.613 29.9387 33.0371 28.794 32.9926 27.6188C32.9481 26.4437 32.4385 25.3344 31.5761 24.5349C32.6251 23.9666 33.8757 22.724 33.8401 20.0317C33.8046 17.205 33.5517 14.1537 31.9597 12.9487ZM22.108 32.8753C21.3282 33.0723 20.5028 32.9663 19.7981 32.5787C19.0934 32.191 18.562 31.5506 18.311 30.7865C18.0599 30.0224 18.108 29.1915 18.4455 28.4615C18.783 27.7315 19.3848 27.1566 20.1295 26.8528C20.2074 26.8226 20.2786 26.7772 20.3391 26.7194C20.3995 26.6616 20.4479 26.5925 20.4816 26.516C20.5153 26.4395 20.5336 26.3571 20.5355 26.2735C20.5373 26.1899 20.5227 26.1067 20.4924 26.0288C20.4621 25.9509 20.4168 25.8797 20.359 25.8192C20.3012 25.7588 20.2321 25.7104 20.1556 25.6767C20.0791 25.643 19.9966 25.6247 19.9131 25.6228C19.8295 25.621 19.7463 25.6356 19.6684 25.6659C18.9419 25.9503 18.3041 26.4227 17.8204 27.0347C16.9118 27.312 15.2764 27.3713 13.9679 25.0353C13.287 23.8188 11.4779 20.5882 12.1176 19.0714C12.295 18.6492 12.6726 18.3668 13.2707 18.2065C14.5831 17.8549 16.7834 18.388 18.8764 19.5636C21.0124 20.7615 22.5599 22.3345 22.917 23.6673L24.3457 28.9994C24.563 29.8101 24.4492 30.6739 24.0296 31.4008C23.6099 32.1277 22.9187 32.6581 22.108 32.8753ZM32.5746 20.0486C32.6104 22.7256 31.1693 23.4896 30.2444 23.7057C29.5195 23.4171 28.7308 23.3269 27.9595 23.4443C27.8768 23.4567 27.7973 23.4853 27.7256 23.5284C27.654 23.5715 27.5915 23.6284 27.5418 23.6956C27.4921 23.7629 27.4561 23.8393 27.4359 23.9205C27.4157 24.0017 27.4117 24.086 27.4241 24.1687C27.4365 24.2515 27.4651 24.3309 27.5082 24.4026C27.5514 24.4743 27.6082 24.5368 27.6755 24.5865C27.7427 24.6362 27.8191 24.6722 27.9003 24.6924C27.9815 24.7126 28.0658 24.7166 28.1486 24.7041C28.7546 24.6103 29.3749 24.6939 29.9345 24.9449C30.4941 25.1958 30.969 25.6034 31.302 26.1185C31.635 26.6335 31.8118 27.2339 31.8109 27.8472C31.8101 28.4605 31.6318 29.0604 31.2974 29.5746C30.9631 30.0887 30.4871 30.495 29.9268 30.7445C29.3666 30.994 28.7461 31.076 28.1403 30.9805C27.5345 30.8851 26.9692 30.6163 26.5129 30.2066C26.0565 29.7969 25.7285 29.2638 25.5685 28.6718L24.1397 23.3397C23.7826 22.0069 24.3372 19.8706 25.5871 17.7654C26.8139 15.7003 28.4529 14.1384 29.7704 13.7854C30.3685 13.6252 30.8347 13.6815 31.2011 13.9569C32.5085 14.952 32.557 18.6543 32.5756 20.0483L32.5746 20.0486Z" fill="white"/>
</g>
<defs>
<clipPath id="clip0_271_448">
<rect width="27.0051" height="27.0051" fill="white" transform="translate(7 13.9893) rotate(-15)"/>
</clipPath>
</defs>
</svg>
