<svg width="48" height="48" viewBox="0 0 48 48" fill="none" xmlns="http://www.w3.org/2000/svg">
<circle cx="23.8928" cy="23.8928" r="23.8928" fill="#AA5EDC"/>
<g clip-path="url(#clip0_271_460)">
<path d="M32.4029 13.0546C31.7044 12.5259 30.841 12.3938 29.8412 12.6617C28.1478 13.1155 26.269 14.8482 24.8145 17.2975C24.2755 18.1914 23.8369 19.142 23.5067 20.1322L22.4524 16.1976C22.4082 16.0326 22.3003 15.8919 22.1523 15.8065C22.0043 15.7211 21.8285 15.6979 21.6635 15.7421C21.4985 15.7863 21.3578 15.8943 21.2723 16.0423C21.1869 16.1902 21.1638 16.3661 21.208 16.5311L22.2622 20.4656C21.4832 19.773 20.6301 19.1685 19.7185 18.663C17.2363 17.2685 14.7419 16.7076 13.0484 17.1613C12.0435 17.4306 11.3618 17.9767 11.0212 18.7838C10.6452 19.6748 10.7132 20.8326 11.2291 22.3227C11.6772 23.6175 12.3936 24.9595 12.9671 25.984C14.3058 28.3751 16.038 28.8291 17.2543 28.8011C17.0793 29.3672 17.0176 29.9623 17.0726 30.5523C17.1276 31.1423 17.2983 31.7157 17.5749 32.2398C17.8515 32.7638 18.2286 33.2282 18.6847 33.6065C19.1408 33.9849 19.667 34.2696 20.2331 34.4446C20.7993 34.6196 21.3943 34.6813 21.9843 34.6263C22.5743 34.5713 23.1477 34.4006 23.6718 34.124C24.1958 33.8474 24.6603 33.4703 25.0386 33.0142C25.4169 32.5581 25.7017 32.0319 25.8766 31.4658C26.7544 32.2794 27.9194 32.7111 29.1154 32.6658C30.3114 32.6205 31.4405 32.1019 32.2541 31.2241C33.0678 30.3464 33.4994 29.1813 33.4541 27.9853C33.4088 26.7893 32.8902 25.6603 32.0125 24.8466C33.0801 24.2682 34.3529 23.0035 34.3167 20.2634C34.2806 17.3865 34.0231 14.281 32.4029 13.0546ZM22.3761 33.3352C21.5825 33.5357 20.7424 33.4278 20.0252 33.0333C19.308 32.6387 18.7671 31.9869 18.5117 31.2092C18.2562 30.4316 18.3051 29.586 18.6486 28.843C18.9921 28.1 19.6046 27.5149 20.3625 27.2057C20.4418 27.1749 20.5143 27.1288 20.5758 27.0699C20.6373 27.0111 20.6866 26.9408 20.7209 26.8629C20.7552 26.785 20.7738 26.7011 20.7757 26.6161C20.7776 26.531 20.7627 26.4464 20.7319 26.367C20.7011 26.2877 20.6549 26.2153 20.5961 26.1538C20.5373 26.0923 20.4669 26.043 20.389 26.0087C20.3112 25.9744 20.2273 25.9557 20.1422 25.9539C20.0571 25.952 19.9725 25.9669 19.8932 25.9977C19.1538 26.2871 18.5047 26.7679 18.0124 27.3908C17.0877 27.6731 15.4232 27.7334 14.0915 25.3559C13.3985 24.1178 11.5572 20.8298 12.2083 19.286C12.3889 18.8564 12.7731 18.5689 13.3818 18.4058C14.7176 18.0479 16.957 18.5905 19.0871 19.787C21.2611 21.0062 22.8361 22.6071 23.1995 23.9636L24.6536 29.3904C24.8747 30.2155 24.759 31.0947 24.3319 31.8345C23.9048 32.5743 23.2013 33.1141 22.3761 33.3352ZM33.0287 20.2806C33.0651 23.0051 31.5985 23.7827 30.6571 24.0027C29.9193 23.709 29.1166 23.6171 28.3316 23.7366C28.2474 23.7492 28.1666 23.7783 28.0936 23.8222C28.0207 23.8661 27.9571 23.9239 27.9065 23.9924C27.8559 24.0609 27.8192 24.1386 27.7987 24.2213C27.7782 24.3039 27.7741 24.3897 27.7867 24.4739C27.7993 24.5581 27.8284 24.639 27.8723 24.712C27.9162 24.7849 27.9741 24.8485 28.0425 24.8991C28.111 24.9497 28.1888 24.9863 28.2714 25.0069C28.354 25.0274 28.4399 25.0315 28.524 25.0188C29.1409 24.9233 29.7722 25.0084 30.3417 25.2638C30.9112 25.5193 31.3946 25.9341 31.7335 26.4583C32.0724 26.9825 32.2523 27.5935 32.2515 28.2177C32.2507 28.8419 32.0691 29.4525 31.7289 29.9758C31.3886 30.4991 30.9041 30.9126 30.3339 31.1666C29.7637 31.4205 29.1322 31.5039 28.5156 31.4067C27.899 31.3096 27.3238 31.036 26.8593 30.619C26.3948 30.2021 26.061 29.6595 25.8981 29.057L24.444 23.6301C24.0805 22.2737 24.645 20.0995 25.9171 17.9569C27.1657 15.855 28.8338 14.2655 30.1747 13.9062C30.7834 13.743 31.2579 13.8004 31.6308 14.0806C32.9615 15.0935 33.0108 18.8616 33.0297 20.2803L33.0287 20.2806Z" fill="white"/>
</g>
<defs>
<clipPath id="clip0_271_460">
<rect width="27.4848" height="27.4848" fill="white" transform="translate(7 14.1138) rotate(-15)"/>
</clipPath>
</defs>
</svg>
