<svg width="48" height="48" viewBox="0 0 48 48" fill="none" xmlns="http://www.w3.org/2000/svg">
<circle cx="23.8928" cy="23.8928" r="23.8928" fill="#E7AF20"/>
<g clip-path="url(#clip0_271_452)">
<path d="M33.0849 12.4553C32.3401 11.8917 31.4195 11.7508 30.3536 12.0365C28.548 12.5203 26.5449 14.3677 24.9942 16.9792C24.4195 17.9322 23.9518 18.9457 23.5997 20.0014L22.4757 15.8064C22.4285 15.6305 22.3134 15.4805 22.1557 15.3894C21.9979 15.2983 21.8104 15.2736 21.6345 15.3208C21.4585 15.3679 21.3085 15.483 21.2175 15.6408C21.1264 15.7985 21.1017 15.986 21.1488 16.162L22.2729 20.357C21.4423 19.6185 20.5327 18.974 19.5608 18.435C16.9143 16.9482 14.2547 16.3501 12.4491 16.8339C11.3777 17.121 10.6508 17.7033 10.2877 18.5638C9.88687 19.5138 9.95928 20.7482 10.5094 22.3369C10.9872 23.7175 11.751 25.1483 12.3624 26.2406C13.7898 28.79 15.6367 29.2741 16.9334 29.2442C16.7469 29.8478 16.681 30.4823 16.7397 31.1113C16.7983 31.7404 16.9803 32.3518 17.2752 32.9105C17.5702 33.4693 17.9722 33.9644 18.4585 34.3678C18.9448 34.7711 19.5058 35.0748 20.1094 35.2613C20.713 35.4479 21.3475 35.5137 21.9766 35.455C22.6056 35.3964 23.217 35.2144 23.7757 34.9195C24.3345 34.6246 24.8297 34.2225 25.233 33.7362C25.6364 33.2499 25.94 32.6889 26.1265 32.0853C27.0624 32.9528 28.3046 33.4131 29.5797 33.3647C30.8549 33.3164 32.0587 32.7635 32.9262 31.8277C33.7937 30.8918 34.254 29.6496 34.2056 28.3744C34.1573 27.0993 33.6044 25.8955 32.6686 25.028C33.8069 24.4113 35.164 23.0629 35.1254 20.1413C35.0868 17.074 34.8123 13.763 33.0849 12.4553ZM22.3943 34.0785C21.5482 34.2923 20.6524 34.1772 19.8878 33.7566C19.1231 33.3359 18.5464 32.6409 18.274 31.8118C18.0016 30.9826 18.0538 30.0811 18.4201 29.2889C18.7863 28.4967 19.4393 27.8729 20.2474 27.5432C20.332 27.5104 20.4092 27.4612 20.4748 27.3985C20.5404 27.3358 20.5929 27.2607 20.6295 27.1777C20.6661 27.0947 20.6859 27.0053 20.6879 26.9146C20.69 26.8238 20.6741 26.7336 20.6412 26.6491C20.6084 26.5645 20.5592 26.4872 20.4965 26.4216C20.4337 26.3561 20.3587 26.3035 20.2757 26.2669C20.1927 26.2304 20.1032 26.2105 20.0125 26.2085C19.9218 26.2065 19.8316 26.2224 19.747 26.2552C18.9587 26.5638 18.2666 27.0765 17.7417 27.7406C16.7558 28.0415 14.9811 28.1058 13.5613 25.571C12.8224 24.2509 10.8592 20.7453 11.5534 19.0992C11.7459 18.6412 12.1556 18.3347 12.8046 18.1608C14.2288 17.7792 16.6165 18.3577 18.8876 19.6334C21.2055 20.9333 22.8847 22.6402 23.2722 24.0865L24.8226 29.8726C25.0583 30.7523 24.9349 31.6897 24.4795 32.4784C24.0241 33.2672 23.2741 33.8427 22.3943 34.0785ZM33.752 20.1597C33.7909 23.0646 32.2271 23.8936 31.2234 24.1282C30.4369 23.815 29.581 23.7171 28.7441 23.8445C28.6543 23.858 28.5681 23.889 28.4903 23.9358C28.4125 23.9826 28.3447 24.0442 28.2907 24.1172C28.2368 24.1902 28.1978 24.2731 28.1758 24.3612C28.1539 24.4493 28.1496 24.5409 28.1631 24.6306C28.1765 24.7204 28.2076 24.8066 28.2544 24.8844C28.3012 24.9622 28.3628 25.03 28.4358 25.0839C28.5088 25.1379 28.5917 25.1769 28.6798 25.1988C28.7679 25.2207 28.8594 25.2251 28.9492 25.2116C29.6069 25.1098 30.28 25.2005 30.8872 25.4728C31.4944 25.7452 32.0098 26.1875 32.3711 26.7463C32.7325 27.3052 32.9243 27.9567 32.9234 28.6222C32.9225 29.2878 32.729 29.9388 32.3662 30.4967C32.0034 31.0546 31.4868 31.4955 30.8789 31.7663C30.2709 32.037 29.5976 32.126 28.9402 32.0224C28.2828 31.9188 27.6695 31.6271 27.1742 31.1825C26.679 30.7379 26.3231 30.1595 26.1494 29.517L24.599 23.7309C24.2115 22.2847 24.8134 19.9666 26.1697 17.6822C27.5009 15.4412 29.2795 13.7464 30.7091 13.3633C31.3582 13.1894 31.864 13.2506 32.2616 13.5493C33.6804 14.6292 33.733 18.6467 33.7531 20.1594L33.752 20.1597Z" fill="white"/>
</g>
<defs>
<clipPath id="clip0_271_452">
<rect width="29.3043" height="29.3043" fill="white" transform="translate(6 13.5845) rotate(-15)"/>
</clipPath>
</defs>
</svg>
